<?xml version="1.0" standalone="no"?>
<!DOCTYPE svg PUBLIC "-//W3C//DTD SVG 20010904//EN"
 "http://www.w3.org/TR/2001/REC-SVG-20010904/DTD/svg10.dtd">
<svg version="1.0" xmlns="http://www.w3.org/2000/svg"
 width="175.000000pt" height="80.000000pt" viewBox="0 0 175.000000 80.000000"
 preserveAspectRatio="xMidYMid meet">

<g transform="translate(0.000000,80.000000) scale(0.100000,-0.100000)"
fill="#000000" stroke="none">
<path d="M545 768 c-38 -40 -64 -52 -205 -93 -150 -44 -205 -71 -254 -125
-145 -160 -98 -398 98 -503 34 -18 57 -22 136 -22 84 0 101 3 146 27 171 90
225 313 113 467 l-31 43 -33 -32 -33 -32 24 -35 c104 -154 -4 -353 -192 -353
-22 0 -62 11 -91 24 -115 54 -160 197 -100 313 28 53 85 92 177 119 47 14 116
35 154 47 80 24 149 68 177 114 l20 32 -39 19 -40 19 -27 -29z"/>
<path d="M686 438 c13 -68 34 -173 45 -235 12 -62 27 -120 34 -130 20 -27 141
-26 160 1 8 10 29 81 47 157 18 76 36 135 39 131 4 -4 21 -69 39 -144 18 -78
39 -143 48 -150 19 -17 137 -17 153 -1 7 7 33 120 59 253 l47 240 -52 0 -51 0
-33 -182 c-37 -201 -47 -236 -61 -222 -8 8 -56 192 -95 362 -5 19 -12 22 -55
22 -57 0 -45 27 -105 -227 -20 -84 -40 -155 -45 -158 -16 -10 -24 19 -60 210
l-35 190 -51 3 -51 3 23 -123z"/>
<path d="M1420 310 l0 -250 165 0 165 0 0 40 0 39 -112 3 -113 3 -3 208 -2
207 -50 0 -50 0 0 -250z"/>
</g>
</svg>
